<?xml version="1.0" encoding="UTF-8"?>
<svg xmlns="http://www.w3.org/2000/svg" xmlns:xlink="http://www.w3.org/1999/xlink" width="245px" height="345px" viewBox="0 0 245 345" version="1.1">
<g id="surface1">
<path style=" stroke:none;fill-rule:nonzero;fill:rgb(0%,0%,0%);fill-opacity:1;" d="M 0 1.917969 L 0 3.832031 L 103.207031 3.832031 C 159.957031 3.832031 206.355469 3.929688 206.296875 4.074219 C 206.242188 4.214844 205.570312 4.648438 204.785156 5.03125 C 198.96875 7.859375 197.800781 8.863281 194.660156 13.945312 L 193.207031 16.242188 L 192.976562 22.378906 C 192.84375 25.730469 192.648438 29.996094 192.554688 31.863281 C 192.265625 37.277344 191.828125 46.335938 191.597656 51.75 C 191.234375 60.519531 191.101562 62.769531 190.910156 63.203125 C 190.8125 63.488281 190.238281 63.488281 189.492188 63.25 C 186.125 62.050781 184.09375 61.765625 181.835938 62.050781 C 180.515625 62.242188 175.921875 62.484375 171.59375 62.578125 C 151.097656 63.011719 151.210938 63.011719 150.90625 64.257812 C 150.847656 64.496094 150.425781 64.6875 149.949219 64.6875 C 149.277344 64.6875 148.972656 64.976562 148.609375 65.886719 L 148.109375 67.132812 L 143.976562 66.941406 C 141.699219 66.796875 139.707031 66.652344 139.59375 66.605469 C 139.363281 66.460938 139.304688 66.171875 139.363281 65.308594 C 139.402344 64.6875 138.691406 64.015625 138.617188 64.640625 C 138.578125 64.925781 138.425781 65.503906 138.273438 65.835938 C 137.890625 66.84375 137.945312 67.179688 138.386719 66.605469 C 138.789062 66.078125 139.285156 66.460938 139.707031 67.707031 C 139.878906 68.28125 139.839844 68.472656 139.535156 68.664062 C 139.285156 68.808594 139.019531 69.71875 138.828125 70.867188 C 138.539062 72.738281 138.5 72.785156 138.15625 72.066406 C 137.890625 71.394531 137.8125 71.394531 137.792969 71.921875 C 137.792969 72.304688 137.699219 72.066406 137.601562 71.394531 C 137.488281 70.726562 137.449219 69.621094 137.507812 68.953125 C 137.582031 67.898438 137.523438 67.609375 137.179688 67.371094 C 136.339844 66.796875 87.914062 68.136719 86.667969 68.808594 L 86.152344 69.046875 L 86.09375 75.371094 C 86.039062 81.601562 86.039062 81.699219 86.515625 82.753906 C 86.785156 83.375 87.128906 83.855469 87.28125 83.855469 C 87.433594 83.855469 87.914062 84.285156 88.316406 84.859375 C 88.71875 85.386719 88.984375 85.628906 88.925781 85.339844 C 88.773438 84.765625 89.808594 84.859375 89.980469 85.484375 C 90.054688 85.675781 90.324219 85.484375 90.59375 85.050781 C 90.878906 84.621094 91.1875 84.382812 91.300781 84.574219 C 91.398438 84.714844 91.492188 84.574219 91.492188 84.191406 C 91.492188 83.855469 91.605469 83.519531 91.742188 83.519531 C 91.855469 83.472656 92.488281 83.136719 93.136719 82.703125 C 94.613281 81.699219 96.660156 82.273438 97.3125 83.855469 C 97.558594 84.382812 97.808594 84.667969 97.886719 84.476562 C 97.960938 84.285156 98.113281 84.476562 98.210938 84.957031 C 98.324219 85.386719 98.535156 85.769531 98.6875 85.769531 C 98.84375 85.769531 99.070312 86.347656 99.207031 87.066406 C 99.320312 87.832031 99.589844 88.695312 99.761719 89.027344 C 99.953125 89.363281 100.105469 89.941406 100.105469 90.324219 C 100.105469 91.183594 100.394531 91.570312 100.757812 91.234375 C 101.003906 90.992188 101.023438 90.800781 100.851562 90.273438 C 100.699219 89.796875 100.699219 89.414062 100.832031 88.980469 C 100.949219 88.644531 100.984375 86.730469 100.949219 84.429688 C 100.910156 82.082031 100.96875 80.5 101.0625 80.5 C 101.175781 80.5 101.253906 80.070312 101.253906 79.589844 C 101.253906 79.109375 101.386719 78.582031 101.542969 78.390625 C 101.695312 78.246094 101.828125 77.769531 101.828125 77.335938 C 101.828125 76.808594 101.925781 76.667969 102.152344 76.859375 C 102.34375 77.050781 102.421875 77.050781 102.34375 76.859375 C 102.152344 76.332031 102.59375 75.230469 102.976562 75.230469 C 103.167969 75.230469 103.359375 74.988281 103.398438 74.703125 C 103.4375 74.367188 104.03125 74.128906 105.023438 74.128906 C 106.421875 74.128906 106.691406 74.320312 107.667969 75.707031 C 108.257812 76.570312 108.699219 77.386719 108.640625 77.527344 C 108.585938 77.671875 108.679688 78.054688 108.871094 78.390625 C 109.140625 78.871094 109.199219 79.734375 109.199219 83.230469 C 109.199219 87.304688 108.988281 92.429688 108.777344 93.917969 C 108.71875 94.300781 108.660156 97.320312 108.640625 100.625 C 108.625 105.273438 108.527344 106.949219 108.277344 108.148438 C 107.933594 109.730469 107.339844 110.878906 107.109375 110.351562 C 107.054688 110.207031 106.996094 110.304688 106.996094 110.640625 C 106.996094 110.976562 106.917969 111.117188 106.824219 110.976562 C 106.726562 110.785156 106.613281 110.925781 106.574219 111.214844 C 106.382812 112.652344 102.785156 112.027344 102.785156 110.589844 C 102.785156 110.351562 102.707031 110.304688 102.59375 110.449219 C 102.480469 110.589844 102.402344 110.496094 102.402344 110.207031 C 102.402344 109.921875 102.308594 109.824219 102.171875 110.015625 C 102.019531 110.257812 102 110.113281 102.078125 109.539062 C 102.191406 108.867188 102.132812 108.722656 101.90625 108.960938 C 101.675781 109.152344 101.617188 109.058594 101.714844 108.53125 C 101.769531 108.148438 101.75 107.8125 101.675781 107.765625 C 101.597656 107.765625 101.332031 107.621094 101.0625 107.523438 C 100.71875 107.382812 100.394531 107.8125 99.875 109.011719 C 99.472656 109.871094 99.148438 110.496094 99.148438 110.351562 C 99.148438 110.207031 98.878906 110.832031 98.535156 111.835938 C 98.210938 112.796875 97.828125 113.515625 97.695312 113.371094 C 97.558594 113.226562 97.40625 113.371094 97.347656 113.707031 C 97.292969 114.136719 97.195312 114.089844 97.0625 113.5625 C 96.871094 112.941406 96.773438 113.179688 96.832031 114.136719 C 96.871094 114.761719 95.511719 115.097656 94.304688 114.808594 C 93.65625 114.617188 92.871094 114.425781 92.546875 114.378906 C 92.238281 114.328125 91.78125 113.992188 91.570312 113.707031 C 91.339844 113.371094 91.109375 113.273438 91.03125 113.417969 C 90.957031 113.609375 90.707031 113.800781 90.476562 113.898438 C 90.25 113.992188 90.039062 114.28125 90 114.519531 C 89.960938 114.808594 89.710938 115 89.464844 115 C 89.214844 115 89.003906 115.191406 89.003906 115.480469 C 89.003906 115.71875 88.792969 115.957031 88.523438 115.957031 C 88.257812 115.957031 88.046875 116.199219 88.046875 116.484375 C 88.046875 116.820312 87.855469 116.917969 87.550781 116.726562 C 87.261719 116.535156 87.109375 116.582031 87.167969 116.820312 C 87.222656 117.109375 86.265625 117.203125 84.792969 117.058594 C 83.339844 116.964844 82.304688 117.058594 82.304688 117.347656 C 82.304688 117.585938 82.015625 117.875 81.652344 117.972656 C 81.289062 118.066406 81.023438 118.019531 81.0625 117.828125 C 81.117188 117.683594 80.925781 117.636719 80.660156 117.777344 C 80.351562 117.921875 80.257812 118.113281 80.390625 118.355469 C 80.503906 118.546875 80.066406 118.59375 79.394531 118.449219 C 76.925781 117.921875 74.898438 118.304688 74.207031 119.410156 C 73.652344 120.320312 72.199219 121.324219 71.988281 121.039062 C 71.757812 120.652344 71.335938 122.042969 71.472656 122.617188 C 71.546875 122.90625 71.050781 123.242188 70.246094 123.433594 C 69.519531 123.578125 68.90625 123.960938 68.90625 124.199219 C 68.90625 124.441406 69.019531 124.488281 69.15625 124.296875 C 69.328125 124.054688 69.328125 124.105469 69.175781 124.535156 C 69 125.015625 68.847656 125.015625 68.5625 124.632812 C 68.027344 123.914062 67.546875 123.914062 67.949219 124.632812 C 68.160156 125.015625 68.0625 125.0625 67.507812 124.871094 C 67.085938 124.726562 66.839844 124.824219 66.898438 125.109375 C 66.972656 125.351562 66.609375 125.445312 65.996094 125.300781 C 65.289062 125.160156 65.078125 125.207031 65.269531 125.542969 C 65.519531 125.925781 65.519531 126.019531 65.230469 126.019531 C 65.039062 126.019531 64.789062 125.734375 64.675781 125.398438 C 64.484375 124.871094 64.253906 124.871094 63.46875 125.398438 C 62.933594 125.78125 61.902344 126.164062 61.191406 126.261719 C 60.007812 126.453125 59.832031 126.355469 59.375 125.300781 C 58.839844 124.054688 58.207031 123.769531 57.882812 124.582031 C 57.765625 124.871094 57.289062 125.109375 56.808594 125.160156 C 56.3125 125.207031 55.96875 125.445312 56.023438 125.734375 C 56.101562 125.972656 55.929688 126.019531 55.660156 125.878906 C 54.992188 125.445312 54.167969 127.363281 54.167969 129.375 C 54.167969 130.667969 54.109375 130.8125 53.726562 130.574219 C 53.324219 130.285156 53.308594 130.429688 53.324219 132.679688 C 53.324219 134.023438 53.402344 135.269531 53.5 135.460938 C 53.574219 135.699219 53.59375 135.554688 53.515625 135.269531 C 53.441406 134.933594 53.460938 134.308594 53.554688 133.878906 C 53.671875 133.304688 53.746094 134.453125 53.765625 137.472656 C 53.785156 139.867188 53.726562 141.832031 53.652344 141.832031 C 53.574219 141.832031 53.515625 140.585938 53.554688 139.054688 C 53.59375 136.753906 53.515625 136.132812 53.132812 135.078125 C 52.597656 133.640625 52.65625 131.675781 53.269531 129.996094 L 53.652344 128.945312 L 53.132812 128.609375 C 52.617188 128.320312 50.570312 128.703125 50.035156 129.230469 C 49.898438 129.375 49.824219 129.664062 49.878906 129.902344 C 49.9375 130.140625 49.765625 130.332031 49.496094 130.332031 C 49.230469 130.332031 49 130.523438 49 130.8125 C 49 131.050781 48.828125 131.292969 48.617188 131.292969 C 48.40625 131.292969 48.234375 131.101562 48.234375 130.910156 C 48.234375 130.285156 47.601562 130.429688 47.335938 131.050781 C 47.199219 131.386719 47.164062 131.820312 47.238281 131.960938 C 47.296875 132.152344 47.21875 132.152344 47.066406 132.011719 C 46.855469 131.820312 46.78125 131.101562 46.78125 129.710938 L 46.796875 127.699219 L 45.9375 127.839844 C 45.460938 127.9375 44.617188 128.320312 44.0625 128.753906 C 42.664062 129.710938 40.042969 129.855469 39.8125 128.894531 C 39.640625 128.273438 39.601562 128.273438 39.449219 128.847656 C 39.335938 129.277344 39.160156 129.375 38.933594 129.136719 C 38.28125 128.417969 37.628906 128.464844 37.171875 129.183594 C 36.921875 129.566406 36.578125 129.804688 36.40625 129.664062 C 35.679688 129.085938 32.0625 132.96875 30.875 135.605469 C 30.738281 135.890625 30.625 135.941406 30.625 135.746094 C 30.625 135.554688 30.53125 135.652344 30.394531 135.988281 C 30.261719 136.324219 29.839844 136.5625 29.4375 136.5625 C 29.035156 136.5625 28.710938 136.753906 28.710938 137.042969 C 28.710938 137.28125 28.578125 137.519531 28.40625 137.519531 C 28.15625 137.519531 28.117188 137.183594 28.214844 135.890625 C 28.308594 134.550781 28.269531 134.117188 27.964844 133.734375 C 27.695312 133.351562 27.582031 133.351562 27.503906 133.832031 C 27.449219 134.261719 27.371094 134.261719 27.160156 133.832031 C 26.875 133.257812 26.261719 133.304688 25.554688 133.925781 C 25.324219 134.117188 25.265625 134.070312 25.398438 133.832031 C 25.515625 133.640625 25.054688 133.449219 24.289062 133.449219 C 23.5625 133.449219 22.96875 133.589844 22.96875 133.785156 C 22.96875 133.976562 22.835938 134.023438 22.664062 133.832031 C 22.414062 133.589844 22.414062 133.449219 22.625 133.113281 C 22.796875 132.777344 22.757812 132.777344 22.492188 133.015625 C 22.28125 133.207031 21.800781 133.449219 21.417969 133.496094 C 21.035156 133.496094 20.652344 133.6875 20.558594 133.832031 C 19.964844 134.695312 16.976562 136.324219 16.078125 136.273438 C 15.503906 136.226562 14.851562 136.324219 14.644531 136.515625 C 12.957031 138.191406 12.210938 138.574219 11.253906 138.191406 C 10.699219 137.953125 10.144531 137.761719 10.011719 137.761719 C 9.894531 137.761719 9.722656 137.570312 9.628906 137.328125 C 9.53125 137.089844 9.589844 137.042969 9.742188 137.28125 C 9.914062 137.519531 9.972656 137.472656 9.875 137.136719 C 9.800781 136.800781 9.628906 136.5625 9.511719 136.5625 C 9.1875 136.515625 8.230469 133.015625 8.230469 131.867188 C 8.230469 131.339844 8.132812 130.8125 8.019531 130.714844 C 7.90625 130.621094 7.789062 129.566406 7.753906 128.320312 C 7.65625 124.871094 6.796875 121.421875 6.164062 121.949219 C 6.03125 122.089844 5.953125 121.996094 5.992188 121.804688 C 6.046875 121.613281 5.972656 121.230469 5.835938 120.894531 C 5.648438 120.460938 5.550781 120.460938 5.511719 120.847656 C 5.417969 121.566406 3.636719 117.300781 3.636719 116.339844 C 3.636719 115.957031 3.523438 115.335938 3.367188 115.046875 C 3.175781 114.664062 3.121094 113.660156 3.160156 111.742188 C 3.273438 106.804688 3.617188 105.320312 5.167969 103.402344 C 6.46875 101.773438 8.34375 100.144531 8.5 100.480469 C 8.554688 100.625 8.726562 100.480469 8.898438 100.144531 C 9.074219 99.808594 9.246094 99.667969 9.320312 99.859375 C 9.378906 100.003906 9.570312 99.859375 9.742188 99.476562 C 10.488281 97.894531 15.351562 96.3125 16.421875 97.320312 C 16.652344 97.558594 16.84375 97.558594 16.84375 97.367188 C 16.84375 97.128906 17.398438 96.695312 18.070312 96.3125 C 19.675781 95.496094 19.90625 94.585938 19.3125 91.28125 C 19.082031 89.941406 18.738281 87.925781 18.566406 86.730469 C 18.375 85.53125 17.914062 82.800781 17.53125 80.597656 C 17.074219 77.960938 16.863281 75.949219 16.882812 74.703125 C 16.902344 73.503906 16.804688 72.59375 16.632812 72.257812 C 16.460938 71.972656 14.777344 71.921875 12.078125 72.066406 C 9.722656 72.210938 6.03125 72.355469 3.886719 72.355469 L 0 72.355469 L 0 340.6875 L 245 340.6875 L 245 0 L 0 0 Z M 210.890625 4.167969 C 210.699219 4.265625 210.394531 4.265625 210.222656 4.167969 C 210.03125 4.023438 210.183594 3.929688 210.546875 3.929688 C 210.910156 3.929688 211.0625 4.023438 210.890625 4.167969 Z M 170.257812 70.4375 C 170.3125 70.675781 170.292969 70.917969 170.179688 70.917969 C 170.082031 70.917969 169.929688 70.675781 169.875 70.4375 C 169.816406 70.148438 169.835938 69.957031 169.949219 69.957031 C 170.046875 69.957031 170.199219 70.148438 170.257812 70.4375 Z M 171.058594 86.25 C 171.328125 86.777344 171.691406 87.207031 171.863281 87.207031 C 172.035156 87.207031 172.378906 87.542969 172.609375 87.976562 C 172.839844 88.359375 173.03125 88.597656 173.03125 88.40625 C 173.03125 87.6875 174.925781 90.753906 175.328125 92.144531 C 175.578125 92.957031 175.960938 94.15625 176.152344 94.683594 C 176.363281 95.257812 176.820312 96.984375 177.164062 98.515625 C 177.53125 100.097656 177.949219 101.964844 178.121094 102.734375 C 178.503906 104.457031 178.351562 105.945312 176.992188 112.84375 C 175.730469 119.359375 174.851562 123.050781 173.605469 127.074219 C 172.417969 130.859375 172.496094 130.667969 171.269531 133.066406 C 170.445312 134.597656 170.3125 134.695312 169.988281 134.117188 C 168.359375 131.101562 167.230469 129.328125 167.136719 129.566406 C 167.078125 129.757812 167.019531 132.394531 167.019531 135.507812 L 167 141.113281 L 166.140625 141.066406 C 164.953125 141.019531 162.847656 139.867188 162.542969 139.101562 C 162.40625 138.765625 162.179688 138.480469 162.0625 138.480469 C 161.929688 138.480469 161.546875 137.710938 161.183594 136.800781 C 160.589844 135.316406 160.550781 135.027344 160.6875 133.351562 C 160.914062 130.429688 160.859375 129.757812 160.207031 126.980469 C 159.632812 124.632812 159.308594 121.996094 158.925781 116.964844 C 158.753906 114.570312 159.269531 103.117188 159.632812 101.199219 C 159.957031 99.570312 159.976562 99.570312 161.277344 99.425781 C 162.007812 99.378906 162.964844 98.949219 163.421875 98.46875 C 164.132812 97.75 164.359375 97.703125 165.070312 98.230469 C 166.0625 98.898438 167.308594 101.917969 167.765625 104.648438 C 167.941406 105.65625 168.265625 107.285156 168.515625 108.242188 C 168.742188 109.203125 169.050781 111.167969 169.183594 112.605469 C 169.433594 115.289062 169.394531 121.949219 169.109375 124.054688 C 168.914062 125.542969 169.316406 125.253906 169.816406 123.578125 C 170.0625 122.714844 170.199219 121.132812 170.292969 117.300781 L 170.410156 112.125 L 169.03125 105.175781 C 168.265625 101.34375 167.558594 98.230469 167.480469 98.230469 C 167.382812 98.230469 167.15625 97.558594 166.964844 96.742188 C 166.617188 95.304688 165.03125 92.480469 164.550781 92.480469 C 164.4375 92.480469 164.09375 92.765625 163.804688 93.148438 C 163.269531 93.867188 163.039062 93.4375 163.230469 92.097656 C 163.347656 91.28125 165.105469 89.125 165.679688 89.125 C 165.929688 89.125 166.410156 88.742188 166.753906 88.261719 C 167.097656 87.785156 167.75 87.113281 168.207031 86.824219 C 168.648438 86.488281 169.011719 86.011719 169.011719 85.769531 C 169.011719 84.859375 170.5625 85.242188 171.058594 86.25 Z M 138.003906 92.527344 C 138.003906 92.765625 137.925781 92.957031 137.851562 92.957031 C 137.753906 92.957031 137.679688 92.621094 137.679688 92.238281 C 137.679688 91.855469 137.753906 91.664062 137.851562 91.808594 C 137.925781 91.953125 138.003906 92.238281 138.003906 92.527344 Z M 140.492188 95.355469 C 140.722656 95.738281 140.703125 95.832031 140.359375 95.832031 C 140.109375 95.832031 139.917969 95.59375 139.917969 95.355469 C 139.917969 94.730469 140.128906 94.730469 140.492188 95.355469 Z M 142.023438 97.847656 C 142.347656 98.421875 142.902344 98.707031 143.707031 98.757812 C 144.511719 98.804688 144.972656 99.089844 145.027344 99.476562 C 145.085938 99.808594 145.679688 101.441406 146.367188 103.117188 C 147.039062 104.792969 147.671875 106.613281 147.765625 107.191406 C 147.859375 107.8125 148.109375 108.292969 148.320312 108.292969 C 148.835938 108.292969 149.71875 109.539062 150.082031 110.734375 C 150.292969 111.453125 150.636719 111.835938 151.132812 111.933594 C 151.554688 111.980469 151.917969 112.078125 151.976562 112.125 C 152.035156 112.125 151.957031 112.316406 151.824219 112.554688 C 151.6875 112.746094 151.554688 113.464844 151.535156 114.089844 C 151.515625 114.710938 151.25 115.765625 150.960938 116.390625 C 150.65625 117.058594 150.292969 117.875 150.15625 118.210938 C 150.003906 118.546875 149.8125 118.832031 149.699219 118.832031 C 149.585938 118.832031 149.488281 119.121094 149.488281 119.503906 C 149.488281 120.605469 149.066406 120.988281 148.875 120.03125 C 148.722656 119.359375 148.644531 119.3125 148.511719 119.839844 C 148.261719 120.847656 142.0625 120.605469 141.21875 119.601562 C 140.894531 119.167969 140.378906 118.832031 140.070312 118.832031 C 139.765625 118.832031 139.34375 118.402344 139.113281 117.875 C 138.882812 117.347656 138.445312 116.628906 138.15625 116.339844 C 137.851562 116.007812 137.46875 115.046875 137.316406 114.234375 C 137.160156 113.417969 136.855469 112.269531 136.664062 111.742188 C 136.453125 111.167969 136.28125 110.542969 136.28125 110.304688 C 136.28125 109.632812 135.804688 107.332031 135.667969 107.332031 C 135.59375 107.332031 135.628906 106.804688 135.746094 106.136719 C 135.859375 105.464844 136.03125 104.9375 136.128906 104.9375 C 136.203125 104.9375 136.28125 104.601562 136.28125 104.21875 C 136.28125 103.738281 136.472656 103.5 136.796875 103.5 C 137.46875 103.5 137.277344 103.070312 136.53125 102.925781 C 135.554688 102.734375 135.976562 102.207031 137.160156 102.109375 C 138.234375 102.015625 139.34375 101.007812 139.34375 100.144531 C 139.34375 99.859375 139.554688 99.667969 139.820312 99.667969 C 140.222656 99.667969 140.300781 99.425781 140.300781 98.132812 C 140.300781 96.695312 140.320312 96.648438 140.585938 97.558594 C 140.855469 98.46875 140.855469 98.421875 140.875 97.414062 C 140.875 96.214844 141.179688 96.3125 142.023438 97.847656 Z M 186.890625 124.34375 C 187.15625 125.253906 187.386719 126.164062 187.386719 126.402344 C 187.386719 126.929688 181.089844 126.980469 180.976562 126.453125 C 180.859375 126.070312 182.085938 123.050781 182.507812 122.667969 C 182.640625 122.523438 183.597656 122.476562 184.59375 122.570312 C 186.390625 122.714844 186.410156 122.714844 186.890625 124.34375 Z M 60.773438 127.457031 C 60.828125 127.699219 60.789062 127.9375 60.695312 127.9375 C 60.582031 127.9375 60.484375 127.699219 60.484375 127.457031 C 60.484375 127.171875 60.523438 126.980469 60.5625 126.980469 C 60.617188 126.980469 60.714844 127.171875 60.773438 127.457031 Z M 78 129.136719 C 82.382812 131.433594 85.386719 139.484375 86.820312 152.613281 C 87.242188 156.351562 87.394531 168.042969 87.109375 172.261719 C 86.496094 180.886719 85.097656 187.738281 82.898438 192.671875 C 80.21875 198.757812 77.175781 201.058594 68.234375 203.644531 C 66.339844 204.222656 63.546875 205.082031 62.035156 205.609375 C 60.503906 206.089844 59.257812 206.472656 59.222656 206.378906 C 59.203125 206.328125 59.085938 201.441406 58.972656 195.5 C 58.648438 180.214844 57.765625 153.859375 57.117188 140.683594 C 56.945312 137.328125 56.886719 134.359375 56.980469 134.167969 C 57.058594 133.976562 58.09375 133.589844 59.242188 133.304688 C 60.40625 133.015625 63.375 132.011719 65.84375 131.050781 C 73.097656 128.273438 75.585938 127.890625 78 129.136719 Z M 144.261719 129.183594 C 144.207031 129.328125 144.03125 129.375 143.898438 129.230469 C 143.746094 129.085938 143.804688 128.945312 144.015625 128.945312 C 144.226562 128.894531 144.339844 129.039062 144.261719 129.183594 Z M 51.105469 134.644531 C 51.105469 134.886719 50.972656 134.980469 50.820312 134.835938 C 50.664062 134.644531 50.53125 134.453125 50.53125 134.359375 C 50.53125 134.261719 50.664062 134.167969 50.820312 134.167969 C 50.972656 134.167969 51.105469 134.359375 51.105469 134.644531 Z M 144.472656 136.324219 C 144.53125 138.382812 144.28125 139.148438 143.667969 138.765625 C 142.847656 138.238281 142.617188 135.460938 143.324219 134.980469 C 144.070312 134.453125 144.414062 134.835938 144.472656 136.324219 Z M 46.992188 138.671875 C 50.261719 141.019531 52.121094 147.917969 51.8125 156.542969 C 51.601562 162.101562 50.4375 166.605469 48.234375 170.390625 L 46.875 172.691406 L 48.121094 173.316406 C 49.59375 173.984375 51.125 175.902344 51.8125 178.011719 C 52.101562 178.777344 52.542969 180.644531 52.808594 182.082031 C 53.230469 184.382812 53.308594 185.339844 53.308594 189.511719 C 53.289062 196.171875 52.847656 198.902344 51.027344 203.453125 C 48.90625 208.820312 45.878906 212.078125 41.632812 213.566406 C 39.199219 214.425781 32.0625 214.617188 31.734375 213.804688 C 31.542969 213.324219 30.148438 197.464844 30.28125 197.175781 C 30.320312 197.128906 31.121094 197.320312 32.0625 197.703125 C 34.148438 198.472656 37.976562 198.566406 39.523438 197.847656 C 42.1875 196.648438 43.640625 193.296875 43.640625 188.503906 C 43.640625 186.636719 43.546875 186.058594 43.007812 184.71875 C 41.859375 181.84375 39.792969 181.363281 35.890625 183.042969 C 34.644531 183.617188 33.609375 184 33.59375 183.902344 C 33.574219 183.808594 33.496094 180.167969 33.417969 175.710938 L 33.285156 167.707031 L 34.585938 167.707031 C 36.253906 167.707031 39.105469 166.414062 40.15625 165.167969 C 41.859375 163.203125 42.339844 158.988281 41.191406 156.066406 C 40.617188 154.628906 40.484375 154.53125 38.988281 154.386719 C 37.113281 154.148438 34.683594 155.152344 32.078125 157.167969 C 31.027344 157.933594 30.164062 158.554688 30.148438 158.507812 C 30.128906 158.414062 30.222656 155.105469 30.355469 151.175781 C 30.492188 147.199219 30.605469 143.652344 30.605469 143.175781 C 30.625 142.550781 31.105469 142.121094 32.75 141.164062 C 34.816406 139.917969 38.875 138.191406 40.578125 137.808594 C 42.398438 137.425781 45.859375 137.855469 46.992188 138.671875 Z M 27.773438 138.429688 C 27.90625 137.902344 27.945312 137.953125 27.945312 138.574219 C 27.945312 139.054688 27.8125 139.339844 27.582031 139.292969 C 27.351562 139.246094 27.257812 139.007812 27.332031 138.527344 C 27.410156 137.953125 27.46875 137.953125 27.523438 138.429688 C 27.601562 138.957031 27.640625 138.957031 27.773438 138.429688 Z M 139.917969 139.675781 C 139.917969 140.585938 139.839844 141.355469 139.746094 141.355469 C 139.648438 141.355469 139.535156 140.585938 139.496094 139.675781 C 139.4375 138.527344 139.496094 138 139.667969 138 C 139.820312 138 139.917969 138.621094 139.917969 139.675781 Z M 165.105469 143.796875 C 165.316406 144.707031 165.183594 152.804688 164.878906 156.925781 C 164.722656 159.035156 164.589844 161.71875 164.570312 162.917969 L 164.53125 165.074219 L 158.007812 165.214844 C 154.425781 165.265625 150.40625 165.457031 149.066406 165.601562 C 147.019531 165.792969 146.617188 165.742188 146.617188 165.167969 C 146.617188 164.785156 146.75 164.355469 146.90625 164.164062 C 147.6875 163.445312 155.515625 162.339844 158.214844 162.628906 L 161.125 162.917969 L 161.433594 161.71875 C 161.605469 161.046875 161.796875 159.800781 161.851562 158.941406 C 161.910156 158.125 162.042969 156.976562 162.140625 156.449219 C 162.371094 155.152344 162.695312 151.847656 162.984375 147.679688 C 163.058594 146.578125 163.210938 145.667969 163.308594 145.667969 C 163.421875 145.667969 163.441406 145.140625 163.382812 144.46875 C 163.269531 143.320312 163.308594 143.269531 164.113281 143.269531 C 164.589844 143.269531 165.03125 143.511719 165.105469 143.796875 Z M 97.960938 153.667969 C 98.363281 155.632812 98.382812 157.550781 98 158.699219 C 97.675781 159.660156 97.597656 159.707031 97.425781 159.082031 C 97.214844 158.269531 97.175781 154.820312 97.347656 153.621094 C 97.503906 152.613281 97.75 152.664062 97.960938 153.667969 Z M 204.117188 158.078125 C 204.269531 158.652344 203.503906 158.988281 201.742188 159.179688 C 199.789062 159.324219 196.269531 158.605469 196.613281 158.078125 C 196.957031 157.503906 203.980469 157.550781 204.117188 158.078125 Z M 195.941406 158.414062 C 195.886719 158.554688 195.710938 158.605469 195.578125 158.460938 C 195.425781 158.316406 195.484375 158.171875 195.695312 158.171875 C 195.90625 158.125 196.019531 158.269531 195.941406 158.414062 Z M 200.191406 160.472656 C 200.363281 160.761719 200.289062 160.953125 199.90625 161.097656 C 199.0625 161.382812 197.511719 160.953125 197.644531 160.472656 C 197.78125 159.945312 199.847656 159.898438 200.191406 160.472656 Z M 201.359375 160.710938 C 201.359375 160.808594 201.1875 161 200.976562 161.144531 C 200.765625 161.289062 200.632812 161.191406 200.707031 160.953125 C 200.804688 160.519531 201.359375 160.328125 201.359375 160.710938 Z M 163.613281 169.335938 C 163.84375 169.527344 164.035156 169.863281 164.035156 170.105469 C 164.035156 170.773438 163.5 176.332031 163.171875 178.921875 C 163.019531 180.214844 162.886719 181.554688 162.886719 181.890625 C 162.886719 182.273438 163.441406 182.945312 164.167969 183.519531 C 164.859375 184.046875 165.527344 184.671875 165.644531 184.910156 C 165.757812 185.148438 166.695312 186.394531 167.730469 187.738281 C 169.644531 190.230469 172.152344 194.828125 171.960938 195.546875 C 171.902344 195.789062 171.195312 195.980469 170.390625 195.980469 L 168.914062 195.980469 L 166.925781 190.898438 C 164.933594 185.773438 164.1875 184.621094 162.3125 183.710938 C 162.042969 183.570312 161.660156 183.28125 161.453125 183.042969 C 161.242188 182.800781 160.589844 182.371094 160.015625 182.082031 C 159.441406 181.746094 158.714844 181.222656 158.390625 180.886719 C 157.507812 179.976562 155.996094 179.304688 150.15625 177.292969 C 149.429688 177.050781 146.980469 176.574219 144.761719 176.238281 C 142.519531 175.949219 140.683594 175.519531 140.683594 175.277344 C 140.683594 174.558594 141.71875 174.273438 143.421875 174.609375 C 144.378906 174.800781 146.710938 175.136719 148.644531 175.375 C 152.128906 175.804688 153.832031 176.332031 155.804688 177.53125 C 157.777344 178.777344 157.929688 178.679688 158.523438 176.574219 C 158.828125 175.519531 159.34375 173.265625 159.652344 171.542969 C 159.976562 169.863281 160.304688 168.332031 160.417969 168.1875 C 160.589844 167.898438 162.808594 168.714844 163.613281 169.335938 Z M 193.875 169.960938 C 194.007812 170.679688 194.164062 174.082031 194.21875 177.53125 C 194.316406 183.042969 194.296875 183.902344 194.027344 184.144531 C 193.855469 184.289062 193.644531 184.191406 193.570312 183.855469 C 193.339844 182.992188 193.242188 168.667969 193.453125 168.667969 C 193.570312 168.667969 193.742188 169.242188 193.875 169.960938 Z M 205.265625 174.175781 C 205.207031 174.511719 205.339844 175.230469 205.570312 175.757812 C 206.011719 176.765625 206.316406 181.316406 206.050781 182.898438 C 205.953125 183.378906 205.914062 184 205.933594 184.335938 C 205.953125 184.621094 205.875 185.007812 205.761719 185.199219 C 205.648438 185.390625 205.570312 184.957031 205.570312 184.144531 C 205.570312 183.378906 205.492188 182.5625 205.417969 182.273438 C 205.109375 181.460938 204.804688 177.914062 204.804688 175.472656 C 204.804688 173.507812 204.863281 173.074219 205.074219 173.265625 C 205.226562 173.410156 205.300781 173.839844 205.265625 174.175781 Z M 175.386719 177.628906 C 175.902344 178.539062 176.265625 179.398438 176.207031 179.542969 C 176.09375 179.832031 174.3125 177.050781 173.664062 175.566406 C 173.089844 174.226562 173.335938 173.699219 173.96875 174.945312 C 174.238281 175.472656 174.886719 176.667969 175.386719 177.628906 Z M 153.414062 181.125 C 152.875 181.699219 152.703125 181.699219 152.835938 181.125 C 152.894531 180.835938 153.144531 180.644531 153.375 180.695312 C 153.777344 180.695312 153.777344 180.742188 153.414062 181.125 Z M 154.464844 182.082031 C 154.101562 182.707031 153.890625 182.707031 153.890625 182.082031 C 153.890625 181.796875 154.082031 181.605469 154.332031 181.605469 C 154.675781 181.605469 154.695312 181.699219 154.464844 182.082031 Z M 160.492188 183.425781 C 160.820312 183.710938 161.296875 184.046875 161.605469 184.191406 C 162.234375 184.574219 162.253906 185.246094 161.699219 188.074219 C 161.125 190.996094 161.183594 191.042969 159.882812 186.636719 C 159.5 185.292969 159.058594 184.046875 158.925781 183.855469 C 158.789062 183.664062 158.675781 183.183594 158.675781 182.851562 C 158.675781 182.179688 159.210938 182.324219 160.492188 183.425781 Z M 153.296875 185.390625 C 153.429688 185.628906 153.488281 186.058594 153.414062 186.394531 C 153.316406 186.828125 153.375 186.875 153.679688 186.636719 C 154.003906 186.394531 154.082031 186.539062 154.082031 187.304688 C 154.082031 188.503906 154.40625 189.03125 154.734375 188.359375 C 154.925781 187.976562 155.058594 188.023438 155.230469 188.550781 C 155.363281 188.984375 155.421875 189.460938 155.34375 189.605469 C 155.269531 189.796875 155.132812 189.652344 155.039062 189.269531 C 154.925781 188.886719 154.847656 188.648438 154.847656 188.792969 C 154.636719 191.953125 154.789062 193.199219 155.230469 191.90625 C 155.363281 191.523438 155.632812 191.1875 155.824219 191.1875 C 156.476562 191.1875 156.1875 192.386719 155.25 193.488281 L 154.332031 194.636719 L 152.894531 193.632812 C 152.109375 193.054688 151.289062 192.625 151.039062 192.625 C 150.808594 192.625 150.503906 192.335938 150.367188 192.050781 C 150.15625 191.523438 150.195312 191.234375 150.558594 190.371094 C 150.808594 189.796875 150.960938 189.03125 150.90625 188.648438 C 150.847656 188.167969 151 187.882812 151.402344 187.640625 C 151.765625 187.496094 151.957031 187.164062 151.882812 186.828125 C 151.804688 186.539062 151.917969 186.203125 152.148438 186.058594 C 152.359375 185.917969 152.492188 185.628906 152.4375 185.390625 C 152.300781 184.816406 152.953125 184.863281 153.296875 185.390625 Z M 157.910156 185.4375 C 157.910156 185.675781 157.757812 185.917969 157.585938 185.917969 C 157.296875 185.917969 157.277344 185.820312 157.527344 185.4375 C 157.890625 184.863281 157.910156 184.863281 157.910156 185.4375 Z M 156.703125 185.726562 C 156.648438 185.867188 156.476562 185.917969 156.339844 185.773438 C 156.1875 185.628906 156.246094 185.484375 156.457031 185.484375 C 156.664062 185.4375 156.78125 185.582031 156.703125 185.726562 Z M 151.5 186.394531 C 151.554688 186.636719 151.515625 186.875 151.421875 186.875 C 151.304688 186.875 151.210938 186.636719 151.210938 186.394531 C 151.210938 186.109375 151.25 185.917969 151.289062 185.917969 C 151.34375 185.917969 151.441406 186.109375 151.5 186.394531 Z M 200.691406 186.394531 C 200.746094 186.636719 201.054688 186.875 201.359375 186.875 C 201.664062 186.875 201.972656 187.066406 202.03125 187.355469 C 202.085938 187.59375 202.394531 187.832031 202.679688 187.832031 C 203.40625 187.832031 203.847656 189.078125 203.234375 189.367188 C 202.566406 189.652344 198.890625 188.933594 198.621094 188.457031 C 198.375 187.976562 196.535156 186.777344 196.269531 186.921875 C 195.75 187.164062 195.617188 186.683594 196.097656 186.394531 C 196.957031 185.820312 200.554688 185.820312 200.691406 186.394531 Z M 204.902344 188.792969 C 204.976562 189.078125 204.765625 189.269531 204.441406 189.269531 C 204.117188 189.269531 203.847656 189.03125 203.847656 188.792969 C 203.847656 188.503906 204.058594 188.3125 204.308594 188.3125 C 204.574219 188.3125 204.84375 188.503906 204.902344 188.792969 Z M 156.761719 192.816406 C 156.761719 192.960938 156.683594 193.199219 156.570312 193.34375 C 156.476562 193.488281 156.378906 193.390625 156.378906 193.152344 C 156.378906 192.863281 156.476562 192.625 156.570312 192.625 C 156.683594 192.625 156.761719 192.722656 156.761719 192.816406 Z M 159.25 195.546875 C 159.25 195.789062 159.34375 195.980469 159.460938 195.980469 C 159.976562 195.980469 160.992188 197.65625 161.355469 199.09375 C 161.757812 200.722656 161.910156 205.707031 161.566406 206.234375 C 161.414062 206.519531 159.402344 204.652344 158.636719 203.503906 C 158.042969 202.640625 157.144531 200.386719 157.144531 199.8125 C 157.144531 199.523438 157.203125 199.382812 157.296875 199.476562 C 157.375 199.621094 157.449219 198.855469 157.488281 197.753906 C 157.507812 196.699219 157.679688 195.597656 157.832031 195.261719 C 158.179688 194.683594 159.25 194.878906 159.25 195.546875 Z M 154.101562 197.753906 C 154.40625 198.230469 154.65625 198.855469 154.65625 199.191406 C 154.65625 199.523438 154.75 199.8125 154.867188 199.8125 C 155.019531 199.8125 155.019531 200.050781 154.847656 200.53125 C 154.65625 201.105469 154.65625 201.25 154.847656 201.25 C 155.019531 201.25 155.019531 201.441406 154.90625 201.824219 C 154.789062 202.160156 154.65625 203.023438 154.578125 203.742188 C 154.464844 204.941406 154.179688 205.371094 153.660156 205.132812 C 153.507812 205.082031 153.429688 206.617188 153.488281 207.910156 C 153.527344 208.246094 153.429688 208.390625 153.316406 208.199219 C 153.203125 208.007812 153.144531 207.574219 153.203125 207.238281 C 153.257812 206.855469 153.164062 206.710938 152.933594 206.855469 C 152.628906 207.046875 152.511719 206.617188 152.265625 204.414062 C 152.089844 202.925781 151.863281 201.730469 151.765625 201.730469 C 151.671875 201.730469 151.59375 201.296875 151.59375 200.769531 C 151.59375 200.242188 151.480469 199.667969 151.324219 199.523438 C 151.171875 199.382812 151 198.757812 150.941406 198.085938 C 150.867188 197.464844 150.714844 196.9375 150.578125 196.890625 C 150.464844 196.839844 150.558594 196.699219 150.828125 196.507812 C 151.5 196.027344 153.429688 196.792969 154.101562 197.753906 Z M 152.800781 208.199219 C 152.742188 208.628906 152.648438 208.867188 152.609375 208.726562 C 152.550781 208.582031 152.570312 208.292969 152.648438 208.007812 C 152.820312 207.238281 152.933594 207.382812 152.800781 208.199219 Z M 153.164062 209.972656 C 153.296875 210.976562 153.085938 213.277344 152.855469 213.085938 C 152.609375 212.894531 152.472656 211.074219 152.628906 210.066406 C 152.742188 209.253906 153.066406 209.203125 153.164062 209.972656 Z M 160.015625 212.988281 C 160.207031 213.566406 160.207031 213.707031 159.9375 213.707031 C 159.765625 213.707031 159.632812 213.371094 159.632812 212.988281 C 159.632812 212.605469 159.671875 212.269531 159.710938 212.269531 C 159.746094 212.269531 159.882812 212.605469 160.015625 212.988281 Z M 152.550781 214.425781 C 152.550781 214.808594 152.472656 215.144531 152.359375 215.144531 C 152.265625 215.144531 152.167969 214.808594 152.167969 214.425781 C 152.167969 214.042969 152.265625 213.707031 152.359375 213.707031 C 152.472656 213.707031 152.550781 214.042969 152.550781 214.425781 Z M 160.4375 218.980469 C 160.226562 220.320312 159.996094 219.554688 160.148438 218.070312 C 160.207031 217.445312 160.320312 217.160156 160.4375 217.445312 C 160.53125 217.683594 160.53125 218.355469 160.4375 218.980469 Z M 177.394531 221.328125 C 177.777344 221.855469 178.351562 222.765625 178.640625 223.386719 C 179.136719 224.394531 179.15625 224.585938 178.886719 225.449219 C 178.660156 226.214844 178.601562 226.261719 178.582031 225.640625 C 178.582031 225.113281 178.238281 224.679688 177.492188 224.203125 C 176.878906 223.867188 176.285156 223.53125 176.152344 223.53125 C 175.824219 223.53125 175.597656 222.8125 175.921875 222.765625 C 176.074219 222.765625 176.035156 222.574219 175.804688 222.332031 C 175.480469 221.996094 175.480469 221.902344 175.769531 221.902344 C 175.941406 221.855469 176.09375 221.519531 176.09375 221.136719 C 176.09375 220.175781 176.535156 220.226562 177.394531 221.328125 Z M 179.75 225.496094 C 179.980469 226.167969 179.960938 226.261719 179.652344 226.117188 C 179.445312 226.023438 179.25 225.640625 179.195312 225.304688 C 179.097656 224.488281 179.445312 224.585938 179.75 225.496094 Z M 141.488281 236.230469 C 142.902344 237.234375 144.015625 242.21875 143.59375 245.765625 C 143.460938 246.769531 143.171875 248.207031 142.941406 248.925781 C 142.40625 250.652344 140.761719 252.570312 140.109375 252.234375 C 137.984375 251.082031 137.046875 248.496094 137.046875 243.753906 C 137.046875 241.644531 137.140625 240.78125 137.640625 239.152344 C 138.539062 236.039062 139.804688 235.078125 141.488281 236.230469 Z M 182.984375 239.105469 C 182.984375 239.34375 182.90625 239.582031 182.792969 239.582031 C 182.695312 239.582031 182.601562 239.34375 182.601562 239.105469 C 182.601562 238.816406 182.695312 238.625 182.792969 238.625 C 182.90625 238.625 182.984375 238.816406 182.984375 239.105469 Z M 180.878906 241.453125 C 180.878906 241.644531 180.59375 241.691406 180.265625 241.546875 C 179.652344 241.355469 179.652344 241.308594 180.113281 241.019531 C 180.609375 240.683594 180.878906 240.828125 180.878906 241.453125 Z M 160.589844 245.859375 C 160.589844 248.496094 160.492188 251.082031 160.398438 251.609375 C 160.207031 252.472656 159.25 252.953125 159.25 252.136719 C 159.25 251.898438 159.136719 251.324219 158.980469 250.84375 C 158.714844 249.933594 158.695312 249.933594 158.3125 250.796875 C 157.738281 252.089844 157.335938 251.082031 157.335938 248.398438 C 157.335938 246.578125 157.449219 246.050781 158.195312 244.085938 C 158.675781 242.890625 159.058594 241.691406 159.058594 241.453125 C 159.058594 241.210938 159.402344 241.019531 159.824219 241.019531 L 160.589844 241.019531 Z M 177.394531 242.792969 C 177.203125 242.890625 177.050781 243.320312 177.050781 243.65625 C 177.050781 243.992188 176.898438 244.421875 176.726562 244.519531 C 176.535156 244.664062 176.667969 244.757812 177.011719 244.804688 C 177.492188 244.855469 177.625 245.046875 177.625 245.8125 C 177.625 247.347656 177.203125 249.167969 176.839844 249.167969 C 176.648438 249.167969 176.457031 249.359375 176.398438 249.597656 C 176.207031 250.363281 174.695312 250.699219 174.523438 250.027344 C 174.390625 249.550781 174.351562 249.597656 174.429688 250.125 C 174.46875 250.507812 174.753906 250.941406 175.058594 251.082031 C 175.84375 251.464844 175.421875 251.898438 174.179688 251.992188 C 173.605469 252.042969 173.089844 252.234375 173.03125 252.472656 C 172.859375 253.238281 170.90625 253.816406 167.578125 254.148438 C 166.523438 254.246094 165.164062 254.675781 164.550781 255.109375 C 163.9375 255.539062 163.078125 255.875 162.65625 255.875 C 161.816406 255.875 160.972656 256.449219 159.726562 257.839844 C 159.308594 258.269531 158.617188 258.796875 158.195312 258.941406 C 157.777344 259.085938 157.242188 259.324219 157.011719 259.515625 C 156.742188 259.707031 156.570312 259.613281 156.570312 259.277344 C 156.570312 258.988281 156.703125 258.75 156.859375 258.75 C 157.03125 258.75 157.085938 258.460938 157.03125 258.03125 C 156.953125 257.550781 157.03125 257.3125 157.242188 257.3125 C 157.546875 257.3125 157.988281 256.882812 159.785156 254.867188 C 160.226562 254.390625 160.761719 253.957031 160.953125 253.957031 C 161.144531 253.957031 161.414062 253.621094 161.546875 253.238281 C 161.679688 252.855469 162.0625 252.519531 162.40625 252.519531 C 162.753906 252.519531 163.230469 252.136719 163.480469 251.609375 C 163.902344 250.796875 167.421875 247.25 167.824219 247.25 C 167.902344 247.25 168.074219 247.011719 168.1875 246.722656 C 168.324219 246.386719 169.125 245.523438 170.007812 244.757812 C 171.269531 243.65625 172.035156 243.367188 173.777344 243.128906 C 174.984375 243.035156 176.015625 242.792969 176.074219 242.699219 C 176.113281 242.554688 176.515625 242.507812 176.9375 242.507812 C 177.375 242.554688 177.566406 242.648438 177.394531 242.792969 Z M 179.023438 245.191406 C 178.886719 245.285156 178.660156 245.285156 178.542969 245.191406 C 178.410156 245.046875 178.503906 244.949219 178.773438 244.949219 C 179.042969 244.949219 179.136719 245.046875 179.023438 245.191406 Z M 178.101562 247.539062 C 178.351562 247.777344 178.371094 247.921875 178.160156 248.257812 C 177.796875 248.878906 177.625 248.785156 177.625 247.96875 C 177.625 247.152344 177.664062 247.105469 178.101562 247.539062 Z M 178.101562 247.539062 "/>
<path style=" stroke:none;fill-rule:nonzero;fill:rgb(0%,0%,0%);fill-opacity:1;" d="M 141.066406 98.707031 C 141.066406 98.949219 141.164062 99.1875 141.257812 99.1875 C 141.371094 99.1875 141.449219 98.949219 141.449219 98.707031 C 141.449219 98.421875 141.371094 98.230469 141.257812 98.230469 C 141.164062 98.230469 141.066406 98.421875 141.066406 98.707031 Z M 141.066406 98.707031 "/>
<path style=" stroke:none;fill-rule:nonzero;fill:rgb(0%,0%,0%);fill-opacity:1;" d="M 68.140625 145.953125 C 67.144531 146.335938 66.285156 146.769531 66.246094 146.914062 C 66.167969 147.054688 67.085938 177.339844 67.433594 186.636719 C 67.46875 187.496094 67.585938 187.59375 68.675781 187.449219 C 70.285156 187.210938 73.003906 185.773438 74.074219 184.574219 C 75.394531 183.136719 76.484375 180.453125 77.136719 177.148438 C 77.824219 173.554688 78.09375 170.296875 78.09375 165.121094 C 78.09375 156.542969 76.714844 149.261719 74.570312 146.527344 C 73.539062 145.1875 70.667969 144.949219 68.140625 145.953125 Z M 68.140625 145.953125 "/>
<path style=" stroke:none;fill-rule:nonzero;fill:rgb(0%,0%,0%);fill-opacity:1;" d="M 152.511719 187.210938 C 152.648438 187.355469 152.820312 187.304688 152.875 187.164062 C 152.953125 187.019531 152.835938 186.875 152.628906 186.921875 C 152.417969 186.921875 152.359375 187.066406 152.511719 187.210938 Z M 152.511719 187.210938 "/>
<path style=" stroke:none;fill-rule:nonzero;fill:rgb(0%,0%,0%);fill-opacity:1;" d="M 153.890625 203.933594 C 153.890625 204.316406 153.984375 204.507812 154.082031 204.363281 C 154.195312 204.222656 154.273438 203.886719 154.273438 203.597656 C 154.273438 203.359375 154.195312 203.167969 154.082031 203.167969 C 153.984375 203.167969 153.890625 203.503906 153.890625 203.933594 Z M 153.890625 203.933594 "/>
<path style=" stroke:none;fill-rule:nonzero;fill:rgb(0%,0%,0%);fill-opacity:1;" d="M 45.554688 20.171875 C 44.023438 22.519531 42.585938 24.726562 42.378906 25.011719 C 40.730469 27.457031 37.34375 32.824219 36.175781 34.835938 C 35.8125 35.507812 34.835938 37.136719 34.03125 38.476562 C 33.015625 40.152344 32.519531 41.304688 32.445312 42.167969 C 32.15625 44.992188 30.96875 50.214844 30.109375 52.371094 C 28.902344 55.441406 26.566406 58.265625 24.421875 59.273438 L 22.796875 59.992188 L 20.039062 66.363281 L 17.285156 72.691406 L 18.296875 78.390625 C 18.871094 81.507812 19.390625 84.476562 19.445312 85.050781 C 19.523438 85.578125 19.867188 87.589844 20.230469 89.507812 C 22.757812 103.070312 23.140625 105.464844 22.816406 105.753906 C 22.644531 105.894531 22.203125 106.328125 21.859375 106.664062 C 21.304688 107.238281 21.148438 107.238281 20.804688 106.613281 C 20.25 105.65625 19.429688 105.703125 18.488281 106.804688 C 18.050781 107.285156 17.359375 107.8125 16.9375 107.957031 L 16.171875 108.148438 L 15.695312 104.507812 C 15.0625 99.761719 14.699219 99.140625 13.09375 100.289062 C 12.460938 100.722656 10.679688 101.964844 9.09375 103.019531 C 4.382812 106.230469 4.230469 106.375 3.90625 107.621094 C 3.617188 108.675781 3.617188 109.058594 3.925781 112.507812 C 4.554688 119.265625 4.882812 120.078125 6.585938 119.121094 C 7.386719 118.640625 7.714844 118.59375 7.753906 119.023438 C 7.808594 119.3125 8.097656 121.898438 8.421875 124.824219 C 9.839844 137.710938 9.492188 136.992188 13.015625 134.644531 C 13.914062 134.070312 14.71875 133.398438 14.816406 133.207031 C 14.910156 132.96875 15.21875 133.257812 15.523438 133.785156 C 16.039062 134.742188 16.136719 134.742188 17.550781 134.167969 C 19.351562 133.449219 20.195312 132.632812 20.5 131.386719 C 20.710938 130.574219 20.765625 130.523438 21.285156 131.195312 C 21.859375 131.867188 22.242188 131.914062 27.46875 131.820312 C 29.878906 131.769531 30.625 131.578125 32.15625 130.523438 C 33.152344 129.902344 34.089844 129.039062 34.261719 128.65625 C 34.433594 128.273438 34.742188 128.082031 34.988281 128.273438 C 35.21875 128.417969 36.097656 128.035156 36.960938 127.457031 C 37.898438 126.835938 38.722656 126.546875 39.027344 126.738281 C 40.117188 127.457031 40.347656 127.507812 41.839844 127.507812 C 42.96875 127.507812 43.621094 127.21875 44.3125 126.5 C 45.039062 125.734375 45.707031 125.492188 47.296875 125.398438 C 49.210938 125.300781 49.363281 125.253906 49.746094 124.105469 C 50.015625 123.289062 50.148438 122.1875 50.148438 120.511719 C 50.167969 118.496094 50.207031 118.304688 50.359375 119.214844 C 50.453125 119.839844 50.492188 120.511719 50.4375 120.75 C 50.378906 120.941406 50.511719 121.230469 50.742188 121.371094 C 51.046875 121.566406 51.085938 121.515625 50.894531 120.941406 C 50.589844 119.984375 50.78125 120.128906 51.257812 121.179688 C 51.488281 121.660156 51.601562 122.234375 51.527344 122.425781 C 51.449219 122.667969 51.488281 122.667969 51.621094 122.476562 C 51.757812 122.285156 52.121094 122.476562 52.445312 122.90625 C 53.480469 124.246094 55.277344 124.34375 56.789062 123.242188 C 57.519531 122.667969 58.359375 121.757812 58.628906 121.179688 C 58.914062 120.652344 59.144531 120.414062 59.144531 120.703125 C 59.144531 120.988281 59.355469 121.566406 59.625 121.996094 C 60.0625 122.714844 60.234375 122.714844 61.824219 121.949219 C 62.78125 121.46875 63.757812 120.703125 64.007812 120.222656 C 64.5625 119.121094 64.695312 119.074219 64.695312 120.03125 C 64.695312 120.414062 64.90625 121.085938 65.171875 121.515625 C 65.632812 122.234375 65.765625 122.234375 67.335938 121.46875 C 68.253906 120.988281 69.269531 120.269531 69.578125 119.886719 C 69.902344 119.457031 70.457031 119.214844 70.839844 119.265625 C 71.679688 119.410156 74.015625 118.066406 74.589844 117.109375 C 74.839844 116.726562 75.222656 116.535156 75.453125 116.675781 C 75.703125 116.820312 76.410156 116.675781 77.058594 116.292969 C 78.152344 115.621094 78.246094 115.671875 78.746094 116.535156 C 79.050781 117.109375 79.433594 117.394531 79.683594 117.253906 C 81.078125 116.4375 82.917969 115.046875 83.148438 114.570312 C 83.339844 114.183594 83.605469 114.234375 84.21875 114.761719 C 85.921875 116.246094 88.792969 115.046875 90.230469 112.171875 L 90.9375 110.785156 L 91.988281 111.980469 C 94.152344 114.472656 97.65625 112.652344 99.261719 108.195312 C 101.042969 103.261719 100.890625 95.738281 98.898438 90.226562 C 97.808594 87.257812 96.660156 86.058594 94.84375 86.058594 C 93.578125 86.058594 93.117188 86.296875 92.238281 87.351562 C 91.664062 88.070312 90.996094 89.125 90.765625 89.746094 L 90.34375 90.898438 L 89.234375 89.460938 C 88.21875 88.167969 88.027344 88.117188 86.4375 88.261719 L 84.734375 88.453125 L 84.871094 84.140625 C 85.136719 75.179688 84.945312 56.542969 84.488281 47.867188 C 84.371094 45.808594 84.238281 45.328125 83.183594 43.027344 C 79.261719 34.5 74.476562 28.652344 67.183594 23.527344 C 65.765625 22.519531 64.082031 21.417969 63.453125 21.132812 C 61.019531 19.886719 55.527344 17.730469 53.691406 17.25 C 52.636719 16.960938 51.046875 16.53125 50.148438 16.292969 C 49.25 16.050781 48.484375 15.859375 48.425781 15.859375 C 48.367188 15.910156 47.085938 17.824219 45.554688 20.171875 Z M 52.367188 17.96875 C 55.605469 18.832031 59.71875 20.316406 61.539062 21.324219 C 66.054688 23.765625 69.691406 26.257812 72.0625 28.605469 C 72.484375 28.988281 73.003906 29.515625 73.210938 29.707031 C 73.421875 29.898438 74.246094 30.859375 75.050781 31.816406 C 75.855469 32.773438 76.601562 33.542969 76.695312 33.542969 C 76.773438 33.542969 77.308594 34.261719 77.84375 35.171875 C 78.398438 36.082031 78.992188 36.945312 79.183594 37.085938 C 79.375 37.230469 79.835938 37.996094 80.199219 38.8125 C 80.5625 39.578125 80.945312 40.25 81.023438 40.25 C 81.347656 40.25 83.816406 45.761719 83.914062 46.71875 C 84.160156 49.164062 84.449219 63.011719 84.429688 71.875 C 84.410156 82.847656 84.105469 89.027344 83.53125 89.84375 C 83.359375 90.082031 82.878906 91.042969 82.476562 91.902344 L 81.769531 93.484375 L 81.632812 91.902344 C 81.558594 91.042969 81.328125 88.835938 81.097656 87.015625 C 80.542969 82.65625 80.199219 82.035156 78.707031 82.894531 C 78.113281 83.230469 77.15625 83.902344 76.621094 84.429688 C 75.527344 85.433594 75.261719 86.488281 75.472656 89.027344 C 75.566406 90.273438 75.546875 90.371094 74.800781 90.417969 C 73.730469 90.5625 72.714844 91.425781 72.140625 92.816406 C 71.71875 93.773438 71.546875 93.917969 71.242188 93.484375 C 70.628906 92.671875 69.269531 92.910156 68.332031 93.964844 C 67.851562 94.492188 67.164062 95.066406 66.800781 95.164062 C 66.4375 95.257812 65.957031 95.449219 65.730469 95.59375 C 65.5 95.738281 65.210938 95.449219 65 94.828125 C 64.714844 93.964844 64.503906 93.820312 63.757812 94.011719 C 63.261719 94.15625 62.570312 94.585938 62.207031 95.019531 C 61.863281 95.496094 61.308594 95.832031 60.980469 95.832031 C 60.65625 95.832031 59.816406 96.265625 59.105469 96.742188 C 58.148438 97.414062 57.59375 97.511719 57 97.222656 C 56.542969 97.03125 55.796875 96.839844 55.316406 96.839844 C 54.457031 96.792969 52.195312 98.324219 51.757812 99.234375 C 51.585938 99.570312 51.507812 98.949219 51.449219 96.792969 C 51.335938 92.574219 51.011719 91.902344 49.058594 91.902344 C 47.46875 91.855469 46.261719 92.574219 45.667969 93.867188 C 45.285156 94.730469 44.597656 97.847656 44.597656 98.804688 C 44.597656 99.140625 44.347656 99.761719 44.042969 100.195312 C 43.601562 100.816406 43.144531 100.960938 41.785156 100.769531 C 40.214844 100.527344 39.945312 100.625 38.988281 101.726562 C 38.414062 102.398438 37.746094 103.402344 37.535156 103.929688 L 37.113281 104.984375 L 36.578125 103.835938 C 36.042969 102.734375 36.042969 102.683594 36.386719 101.632812 C 37.382812 98.566406 37.421875 92.480469 36.460938 88.359375 C 35.945312 86.105469 35.792969 86.011719 33.878906 86.25 C 32.863281 86.347656 31.3125 88.308594 30.777344 90.132812 C 29.34375 94.921875 29.191406 98.421875 30.128906 104.074219 C 30.339844 105.273438 28.617188 106.519531 27.675781 105.847656 C 27.3125 105.609375 26.300781 105.320312 25.4375 105.226562 L 23.886719 105.035156 L 22.375 97.511719 C 21.53125 93.390625 20.863281 89.796875 20.863281 89.554688 C 20.863281 89.316406 20.460938 87.015625 19.964844 84.429688 C 19.484375 81.890625 18.851562 78.199219 18.566406 76.285156 L 18.050781 72.738281 L 19.503906 69.238281 C 23.0625 60.664062 22.777344 61.140625 24.730469 60.230469 C 27.085938 59.128906 28.480469 57.453125 30.414062 53.425781 C 31.121094 51.988281 32.308594 47.101562 32.671875 44.273438 C 32.980469 41.785156 33.054688 41.589844 35.160156 37.996094 C 36.367188 35.9375 37.785156 33.542969 38.339844 32.679688 C 38.875 31.816406 39.984375 30.042969 40.808594 28.75 C 41.632812 27.410156 42.339844 26.355469 42.398438 26.355469 C 42.453125 26.355469 43.164062 25.253906 43.964844 23.910156 C 44.75 22.570312 45.765625 21.035156 46.207031 20.507812 C 47.277344 19.214844 47.851562 18.398438 48.101562 17.777344 C 48.386719 17.058594 49.210938 17.105469 52.367188 17.96875 Z M 49.957031 95.832031 C 49.957031 96.074219 49.917969 96.3125 49.878906 96.3125 C 49.824219 96.3125 49.726562 96.074219 49.671875 95.832031 C 49.613281 95.546875 49.652344 95.355469 49.746094 95.355469 C 49.863281 95.355469 49.957031 95.546875 49.957031 95.832031 Z M 34.703125 106.230469 C 34.566406 106.328125 34.300781 106.328125 34.128906 106.230469 C 33.9375 106.085938 34.050781 105.992188 34.359375 105.992188 C 34.683594 105.992188 34.816406 106.085938 34.703125 106.230469 Z M 86.265625 111.453125 C 86.210938 111.597656 86.039062 111.644531 85.902344 111.503906 C 85.75 111.359375 85.808594 111.214844 86.019531 111.214844 C 86.226562 111.167969 86.34375 111.308594 86.265625 111.453125 Z M 28.84375 118.929688 C 28.789062 119.3125 28.730469 119.167969 28.730469 118.640625 C 28.710938 118.113281 28.769531 117.828125 28.824219 118.019531 C 28.882812 118.164062 28.902344 118.59375 28.84375 118.929688 Z M 28.84375 118.929688 "/>
<path style=" stroke:none;fill-rule:nonzero;fill:rgb(0%,0%,0%);fill-opacity:1;" d="M 44.597656 37.855469 C 41.667969 39.101562 38.933594 42.214844 39.199219 43.988281 C 39.621094 46.910156 40.117188 48.109375 41.515625 49.738281 C 44.695312 53.425781 50.054688 52.851562 53.765625 48.445312 C 55.238281 46.71875 55.507812 46.144531 55.507812 44.851562 C 55.507812 42.453125 53.863281 39.820312 50.894531 37.421875 C 49.917969 36.65625 46.933594 36.847656 44.597656 37.855469 Z M 44.597656 37.855469 "/>
<path style=" stroke:none;fill-rule:nonzero;fill:rgb(0%,0%,0%);fill-opacity:1;" d="M 64.90625 45.570312 C 63.46875 46.191406 61.632812 48.300781 61.632812 49.355469 C 61.632812 51.558594 63.242188 53.714844 65.382812 54.386719 C 67.28125 55.054688 70.628906 52.851562 71.414062 50.503906 C 71.625 49.882812 71.546875 49.496094 70.933594 48.011719 C 69.824219 45.425781 67.527344 44.515625 64.90625 45.570312 Z M 64.90625 45.570312 "/>
<path style=" stroke:none;fill-rule:nonzero;fill:rgb(0%,0%,0%);fill-opacity:1;" d="M 73.558594 65.167969 C 71.414062 66.269531 70.246094 69.910156 70.246094 75.566406 C 70.246094 78.632812 70.589844 80.738281 71.453125 82.800781 C 72.0625 84.285156 73.5 85.578125 73.691406 84.859375 C 73.75 84.667969 74.015625 84.332031 74.285156 84.191406 C 75.816406 83.230469 77.328125 78.246094 77.328125 74.128906 C 77.328125 70.675781 77.136719 69.238281 76.410156 67.179688 C 75.625 65.023438 74.917969 64.542969 73.558594 65.167969 Z M 73.558594 65.167969 "/>
<path style=" stroke:none;fill-rule:nonzero;fill:rgb(0%,0%,0%);fill-opacity:1;" d="M 42.875 82.945312 C 40.867188 84.957031 40.597656 92.144531 42.433594 94.875 C 43.199219 95.976562 43.449219 96.074219 43.449219 95.210938 C 43.449219 94.875 43.679688 94.253906 43.984375 93.820312 C 45.019531 92.289062 45.421875 90.707031 45.496094 88.070312 C 45.613281 84.476562 45.078125 82.417969 44.082031 82.464844 C 43.679688 82.464844 43.144531 82.703125 42.875 82.945312 Z M 42.875 82.945312 "/>
<path style=" stroke:none;fill-rule:nonzero;fill:rgb(0%,0%,0%);fill-opacity:1;" d="M 73.882812 85.292969 C 73.882812 85.53125 74.015625 85.769531 74.1875 85.769531 C 74.34375 85.769531 74.417969 85.53125 74.359375 85.292969 C 74.304688 85.003906 74.171875 84.8125 74.054688 84.8125 C 73.960938 84.8125 73.882812 85.003906 73.882812 85.292969 Z M 73.882812 85.292969 "/>
<path style=" stroke:none;fill-rule:nonzero;fill:rgb(0%,0%,0%);fill-opacity:1;" d="M 102.707031 77.578125 C 102.230469 78.871094 102.097656 84.8125 102.402344 90.660156 C 102.632812 94.875 102.632812 95.59375 102.363281 96.695312 C 102.152344 97.605469 102.058594 99.425781 102.039062 102.78125 C 101.980469 109.203125 102.058594 109.394531 104.796875 109.632812 C 106.710938 109.824219 106.804688 109.777344 107.265625 108.628906 C 107.722656 107.476562 107.761719 107.046875 107.761719 103.070312 C 107.761719 100.722656 107.667969 98.179688 107.53125 97.414062 C 107.285156 95.882812 107.300781 95.257812 107.667969 91.042969 C 107.800781 89.316406 107.972656 85.914062 108.03125 83.472656 C 108.144531 79.207031 108.125 78.964844 107.667969 77.816406 C 107.226562 76.761719 107.074219 76.667969 105.121094 76.667969 C 103.300781 76.667969 102.996094 76.761719 102.707031 77.578125 Z M 102.707031 77.578125 "/>
<path style=" stroke:none;fill-rule:nonzero;fill:rgb(0%,0%,0%);fill-opacity:1;" d="M 17.609375 97.703125 C 17.609375 97.941406 17.78125 98.230469 17.992188 98.371094 C 18.242188 98.515625 18.375 98.371094 18.375 97.941406 C 18.375 97.558594 18.203125 97.269531 17.992188 97.269531 C 17.78125 97.269531 17.609375 97.460938 17.609375 97.703125 Z M 17.609375 97.703125 "/>
<path style=" stroke:none;fill-rule:nonzero;fill:rgb(0%,0%,0%);fill-opacity:1;" d="M 18.585938 98.085938 C 18.664062 99.1875 18.488281 99.425781 17.6875 99.234375 L 16.804688 99.089844 L 17.132812 100.335938 C 17.417969 101.441406 17.589844 101.582031 18.183594 101.441406 C 18.585938 101.34375 19.027344 100.960938 19.179688 100.578125 C 19.445312 100.003906 19.445312 99.808594 19.199219 98.851562 C 18.910156 97.796875 18.546875 97.367188 18.585938 98.085938 Z M 18.585938 98.085938 "/>
<path style=" stroke:none;fill-rule:nonzero;fill:rgb(0%,0%,0%);fill-opacity:1;" d="M 0 343.082031 L 0 345 L 245 345 L 245 341.167969 L 0 341.167969 Z M 0 343.082031 "/>
</g>
</svg>
